<?xml version="1.0" encoding="utf-8" standalone="no"?>
<!DOCTYPE svg PUBLIC "-//W3C//DTD SVG 1.1//EN"
  "http://www.w3.org/Graphics/SVG/1.1/DTD/svg11.dtd">
<svg height="792pt" version="1.1" viewBox="0 0 1152 792" width="1152pt" xmlns="http://www.w3.org/2000/svg" xmlns:xlink="http://www.w3.org/1999/xlink">
 <metadata>
  <rdf:RDF xmlns:cc="http://creativecommons.org/ns#" xmlns:dc="http://purl.org/dc/elements/1.1/" xmlns:rdf="http://www.w3.org/1999/02/22-rdf-syntax-ns#">
   <cc:Work>
    <dc:type rdf:resource="http://purl.org/dc/dcmitype/StillImage"/>
    <dc:date>2022-04-27T17:43:33.624890</dc:date>
    <dc:format>image/svg+xml</dc:format>
    <dc:creator>
     <cc:Agent>
      <dc:title>Matplotlib v3.4.3, https://matplotlib.org/</dc:title>
     </cc:Agent>
    </dc:creator>
   </cc:Work>
  </rdf:RDF>
 </metadata>
 <defs>
  <style type="text/css">*{stroke-linecap:butt;stroke-linejoin:round;}</style>
 </defs>
 <g id="figure_1">
  <g id="patch_1">
   <path d="M 0 792 
L 1152 792 
L 1152 0 
L 0 0 
z
" style="fill:#ffffff;"/>
  </g>
  <g id="axes_1">
   <g id="patch_2">
    <path d="M 144 704.88 
L 1036.8 704.88 
L 1036.8 95.04 
L 144 95.04 
z
" style="fill:#ffffff;"/>
   </g>
   <g id="matplotlib.axis_1">
    <g id="xtick_1">
     <g id="line2d_1">
      <path clip-path="url(#pb49faef537)" d="M 144 704.88 
L 144 95.04 
" style="fill:none;stroke:#ffa500;stroke-dasharray:1.665,0.72;stroke-dashoffset:0;stroke-width:0.45;"/>
     </g>
     <g id="line2d_2">
      <defs>
       <path d="M 0 0 
L 0 3.5 
" id="m2e4d03821c" style="stroke:#000000;stroke-width:0.8;"/>
      </defs>
      <g>
       <use style="stroke:#000000;stroke-width:0.8;" x="144" xlink:href="#m2e4d03821c" y="704.88"/>
      </g>
     </g>
     <g id="text_1">
      <!-- 0 -->
      <g transform="translate(140.81875 719.478438)scale(0.1 -0.1)">
       <defs>
        <path d="M 2034 4250 
Q 1547 4250 1301 3770 
Q 1056 3291 1056 2328 
Q 1056 1369 1301 889 
Q 1547 409 2034 409 
Q 2525 409 2770 889 
Q 3016 1369 3016 2328 
Q 3016 3291 2770 3770 
Q 2525 4250 2034 4250 
z
M 2034 4750 
Q 2819 4750 3233 4129 
Q 3647 3509 3647 2328 
Q 3647 1150 3233 529 
Q 2819 -91 2034 -91 
Q 1250 -91 836 529 
Q 422 1150 422 2328 
Q 422 3509 836 4129 
Q 1250 4750 2034 4750 
z
" id="DejaVuSans-30" transform="scale(0.015625)"/>
       </defs>
       <use xlink:href="#DejaVuSans-30"/>
      </g>
     </g>
    </g>
    <g id="xtick_2">
     <g id="line2d_3">
      <path clip-path="url(#pb49faef537)" d="M 322.56 704.88 
L 322.56 95.04 
" style="fill:none;stroke:#ffa500;stroke-dasharray:1.665,0.72;stroke-dashoffset:0;stroke-width:0.45;"/>
     </g>
     <g id="line2d_4">
      <g>
       <use style="stroke:#000000;stroke-width:0.8;" x="322.56" xlink:href="#m2e4d03821c" y="704.88"/>
      </g>
     </g>
     <g id="text_2">
      <!-- 2 -->
      <g transform="translate(319.37875 719.478438)scale(0.1 -0.1)">
       <defs>
        <path d="M 1228 531 
L 3431 531 
L 3431 0 
L 469 0 
L 469 531 
Q 828 903 1448 1529 
Q 2069 2156 2228 2338 
Q 2531 2678 2651 2914 
Q 2772 3150 2772 3378 
Q 2772 3750 2511 3984 
Q 2250 4219 1831 4219 
Q 1534 4219 1204 4116 
Q 875 4013 500 3803 
L 500 4441 
Q 881 4594 1212 4672 
Q 1544 4750 1819 4750 
Q 2544 4750 2975 4387 
Q 3406 4025 3406 3419 
Q 3406 3131 3298 2873 
Q 3191 2616 2906 2266 
Q 2828 2175 2409 1742 
Q 1991 1309 1228 531 
z
" id="DejaVuSans-32" transform="scale(0.015625)"/>
       </defs>
       <use xlink:href="#DejaVuSans-32"/>
      </g>
     </g>
    </g>
    <g id="xtick_3">
     <g id="line2d_5">
      <path clip-path="url(#pb49faef537)" d="M 501.12 704.88 
L 501.12 95.04 
" style="fill:none;stroke:#ffa500;stroke-dasharray:1.665,0.72;stroke-dashoffset:0;stroke-width:0.45;"/>
     </g>
     <g id="line2d_6">
      <g>
       <use style="stroke:#000000;stroke-width:0.8;" x="501.12" xlink:href="#m2e4d03821c" y="704.88"/>
      </g>
     </g>
     <g id="text_3">
      <!-- 4 -->
      <g transform="translate(497.93875 719.478438)scale(0.1 -0.1)">
       <defs>
        <path d="M 2419 4116 
L 825 1625 
L 2419 1625 
L 2419 4116 
z
M 2253 4666 
L 3047 4666 
L 3047 1625 
L 3713 1625 
L 3713 1100 
L 3047 1100 
L 3047 0 
L 2419 0 
L 2419 1100 
L 313 1100 
L 313 1709 
L 2253 4666 
z
" id="DejaVuSans-34" transform="scale(0.015625)"/>
       </defs>
       <use xlink:href="#DejaVuSans-34"/>
      </g>
     </g>
    </g>
    <g id="xtick_4">
     <g id="line2d_7">
      <path clip-path="url(#pb49faef537)" d="M 679.68 704.88 
L 679.68 95.04 
" style="fill:none;stroke:#ffa500;stroke-dasharray:1.665,0.72;stroke-dashoffset:0;stroke-width:0.45;"/>
     </g>
     <g id="line2d_8">
      <g>
       <use style="stroke:#000000;stroke-width:0.8;" x="679.68" xlink:href="#m2e4d03821c" y="704.88"/>
      </g>
     </g>
     <g id="text_4">
      <!-- 6 -->
      <g transform="translate(676.49875 719.478438)scale(0.1 -0.1)">
       <defs>
        <path d="M 2113 2584 
Q 1688 2584 1439 2293 
Q 1191 2003 1191 1497 
Q 1191 994 1439 701 
Q 1688 409 2113 409 
Q 2538 409 2786 701 
Q 3034 994 3034 1497 
Q 3034 2003 2786 2293 
Q 2538 2584 2113 2584 
z
M 3366 4563 
L 3366 3988 
Q 3128 4100 2886 4159 
Q 2644 4219 2406 4219 
Q 1781 4219 1451 3797 
Q 1122 3375 1075 2522 
Q 1259 2794 1537 2939 
Q 1816 3084 2150 3084 
Q 2853 3084 3261 2657 
Q 3669 2231 3669 1497 
Q 3669 778 3244 343 
Q 2819 -91 2113 -91 
Q 1303 -91 875 529 
Q 447 1150 447 2328 
Q 447 3434 972 4092 
Q 1497 4750 2381 4750 
Q 2619 4750 2861 4703 
Q 3103 4656 3366 4563 
z
" id="DejaVuSans-36" transform="scale(0.015625)"/>
       </defs>
       <use xlink:href="#DejaVuSans-36"/>
      </g>
     </g>
    </g>
    <g id="xtick_5">
     <g id="line2d_9">
      <path clip-path="url(#pb49faef537)" d="M 858.24 704.88 
L 858.24 95.04 
" style="fill:none;stroke:#ffa500;stroke-dasharray:1.665,0.72;stroke-dashoffset:0;stroke-width:0.45;"/>
     </g>
     <g id="line2d_10">
      <g>
       <use style="stroke:#000000;stroke-width:0.8;" x="858.24" xlink:href="#m2e4d03821c" y="704.88"/>
      </g>
     </g>
     <g id="text_5">
      <!-- 8 -->
      <g transform="translate(855.05875 719.478438)scale(0.1 -0.1)">
       <defs>
        <path d="M 2034 2216 
Q 1584 2216 1326 1975 
Q 1069 1734 1069 1313 
Q 1069 891 1326 650 
Q 1584 409 2034 409 
Q 2484 409 2743 651 
Q 3003 894 3003 1313 
Q 3003 1734 2745 1975 
Q 2488 2216 2034 2216 
z
M 1403 2484 
Q 997 2584 770 2862 
Q 544 3141 544 3541 
Q 544 4100 942 4425 
Q 1341 4750 2034 4750 
Q 2731 4750 3128 4425 
Q 3525 4100 3525 3541 
Q 3525 3141 3298 2862 
Q 3072 2584 2669 2484 
Q 3125 2378 3379 2068 
Q 3634 1759 3634 1313 
Q 3634 634 3220 271 
Q 2806 -91 2034 -91 
Q 1263 -91 848 271 
Q 434 634 434 1313 
Q 434 1759 690 2068 
Q 947 2378 1403 2484 
z
M 1172 3481 
Q 1172 3119 1398 2916 
Q 1625 2713 2034 2713 
Q 2441 2713 2670 2916 
Q 2900 3119 2900 3481 
Q 2900 3844 2670 4047 
Q 2441 4250 2034 4250 
Q 1625 4250 1398 4047 
Q 1172 3844 1172 3481 
z
" id="DejaVuSans-38" transform="scale(0.015625)"/>
       </defs>
       <use xlink:href="#DejaVuSans-38"/>
      </g>
     </g>
    </g>
    <g id="xtick_6">
     <g id="line2d_11">
      <path clip-path="url(#pb49faef537)" d="M 1036.8 704.88 
L 1036.8 95.04 
" style="fill:none;stroke:#ffa500;stroke-dasharray:1.665,0.72;stroke-dashoffset:0;stroke-width:0.45;"/>
     </g>
     <g id="line2d_12">
      <g>
       <use style="stroke:#000000;stroke-width:0.8;" x="1036.8" xlink:href="#m2e4d03821c" y="704.88"/>
      </g>
     </g>
     <g id="text_6">
      <!-- 10 -->
      <g transform="translate(1030.4375 719.478438)scale(0.1 -0.1)">
       <defs>
        <path d="M 794 531 
L 1825 531 
L 1825 4091 
L 703 3866 
L 703 4441 
L 1819 4666 
L 2450 4666 
L 2450 531 
L 3481 531 
L 3481 0 
L 794 0 
L 794 531 
z
" id="DejaVuSans-31" transform="scale(0.015625)"/>
       </defs>
       <use xlink:href="#DejaVuSans-31"/>
       <use x="63.623047" xlink:href="#DejaVuSans-30"/>
      </g>
     </g>
    </g>
    <g id="xtick_7">
     <g id="line2d_13">
      <path clip-path="url(#pb49faef537)" d="M 188.64 704.88 
L 188.64 95.04 
" style="fill:none;stroke:#ffa500;stroke-dasharray:0.925,0.4;stroke-dashoffset:0;stroke-width:0.25;"/>
     </g>
     <g id="line2d_14">
      <defs>
       <path d="M 0 0 
L 0 2 
" id="m5716a62392" style="stroke:#000000;stroke-width:0.6;"/>
      </defs>
      <g>
       <use style="stroke:#000000;stroke-width:0.6;" x="188.64" xlink:href="#m5716a62392" y="704.88"/>
      </g>
     </g>
    </g>
    <g id="xtick_8">
     <g id="line2d_15">
      <path clip-path="url(#pb49faef537)" d="M 233.28 704.88 
L 233.28 95.04 
" style="fill:none;stroke:#ffa500;stroke-dasharray:0.925,0.4;stroke-dashoffset:0;stroke-width:0.25;"/>
     </g>
     <g id="line2d_16">
      <g>
       <use style="stroke:#000000;stroke-width:0.6;" x="233.28" xlink:href="#m5716a62392" y="704.88"/>
      </g>
     </g>
    </g>
    <g id="xtick_9">
     <g id="line2d_17">
      <path clip-path="url(#pb49faef537)" d="M 277.92 704.88 
L 277.92 95.04 
" style="fill:none;stroke:#ffa500;stroke-dasharray:0.925,0.4;stroke-dashoffset:0;stroke-width:0.25;"/>
     </g>
     <g id="line2d_18">
      <g>
       <use style="stroke:#000000;stroke-width:0.6;" x="277.92" xlink:href="#m5716a62392" y="704.88"/>
      </g>
     </g>
    </g>
    <g id="xtick_10">
     <g id="line2d_19">
      <path clip-path="url(#pb49faef537)" d="M 367.2 704.88 
L 367.2 95.04 
" style="fill:none;stroke:#ffa500;stroke-dasharray:0.925,0.4;stroke-dashoffset:0;stroke-width:0.25;"/>
     </g>
     <g id="line2d_20">
      <g>
       <use style="stroke:#000000;stroke-width:0.6;" x="367.2" xlink:href="#m5716a62392" y="704.88"/>
      </g>
     </g>
    </g>
    <g id="xtick_11">
     <g id="line2d_21">
      <path clip-path="url(#pb49faef537)" d="M 411.84 704.88 
L 411.84 95.04 
" style="fill:none;stroke:#ffa500;stroke-dasharray:0.925,0.4;stroke-dashoffset:0;stroke-width:0.25;"/>
     </g>
     <g id="line2d_22">
      <g>
       <use style="stroke:#000000;stroke-width:0.6;" x="411.84" xlink:href="#m5716a62392" y="704.88"/>
      </g>
     </g>
    </g>
    <g id="xtick_12">
     <g id="line2d_23">
      <path clip-path="url(#pb49faef537)" d="M 456.48 704.88 
L 456.48 95.04 
" style="fill:none;stroke:#ffa500;stroke-dasharray:0.925,0.4;stroke-dashoffset:0;stroke-width:0.25;"/>
     </g>
     <g id="line2d_24">
      <g>
       <use style="stroke:#000000;stroke-width:0.6;" x="456.48" xlink:href="#m5716a62392" y="704.88"/>
      </g>
     </g>
    </g>
    <g id="xtick_13">
     <g id="line2d_25">
      <path clip-path="url(#pb49faef537)" d="M 545.76 704.88 
L 545.76 95.04 
" style="fill:none;stroke:#ffa500;stroke-dasharray:0.925,0.4;stroke-dashoffset:0;stroke-width:0.25;"/>
     </g>
     <g id="line2d_26">
      <g>
       <use style="stroke:#000000;stroke-width:0.6;" x="545.76" xlink:href="#m5716a62392" y="704.88"/>
      </g>
     </g>
    </g>
    <g id="xtick_14">
     <g id="line2d_27">
      <path clip-path="url(#pb49faef537)" d="M 590.4 704.88 
L 590.4 95.04 
" style="fill:none;stroke:#ffa500;stroke-dasharray:0.925,0.4;stroke-dashoffset:0;stroke-width:0.25;"/>
     </g>
     <g id="line2d_28">
      <g>
       <use style="stroke:#000000;stroke-width:0.6;" x="590.4" xlink:href="#m5716a62392" y="704.88"/>
      </g>
     </g>
    </g>
    <g id="xtick_15">
     <g id="line2d_29">
      <path clip-path="url(#pb49faef537)" d="M 635.04 704.88 
L 635.04 95.04 
" style="fill:none;stroke:#ffa500;stroke-dasharray:0.925,0.4;stroke-dashoffset:0;stroke-width:0.25;"/>
     </g>
     <g id="line2d_30">
      <g>
       <use style="stroke:#000000;stroke-width:0.6;" x="635.04" xlink:href="#m5716a62392" y="704.88"/>
      </g>
     </g>
    </g>
    <g id="xtick_16">
     <g id="line2d_31">
      <path clip-path="url(#pb49faef537)" d="M 724.32 704.88 
L 724.32 95.04 
" style="fill:none;stroke:#ffa500;stroke-dasharray:0.925,0.4;stroke-dashoffset:0;stroke-width:0.25;"/>
     </g>
     <g id="line2d_32">
      <g>
       <use style="stroke:#000000;stroke-width:0.6;" x="724.32" xlink:href="#m5716a62392" y="704.88"/>
      </g>
     </g>
    </g>
    <g id="xtick_17">
     <g id="line2d_33">
      <path clip-path="url(#pb49faef537)" d="M 768.96 704.88 
L 768.96 95.04 
" style="fill:none;stroke:#ffa500;stroke-dasharray:0.925,0.4;stroke-dashoffset:0;stroke-width:0.25;"/>
     </g>
     <g id="line2d_34">
      <g>
       <use style="stroke:#000000;stroke-width:0.6;" x="768.96" xlink:href="#m5716a62392" y="704.88"/>
      </g>
     </g>
    </g>
    <g id="xtick_18">
     <g id="line2d_35">
      <path clip-path="url(#pb49faef537)" d="M 813.6 704.88 
L 813.6 95.04 
" style="fill:none;stroke:#ffa500;stroke-dasharray:0.925,0.4;stroke-dashoffset:0;stroke-width:0.25;"/>
     </g>
     <g id="line2d_36">
      <g>
       <use style="stroke:#000000;stroke-width:0.6;" x="813.6" xlink:href="#m5716a62392" y="704.88"/>
      </g>
     </g>
    </g>
    <g id="xtick_19">
     <g id="line2d_37">
      <path clip-path="url(#pb49faef537)" d="M 902.88 704.88 
L 902.88 95.04 
" style="fill:none;stroke:#ffa500;stroke-dasharray:0.925,0.4;stroke-dashoffset:0;stroke-width:0.25;"/>
     </g>
     <g id="line2d_38">
      <g>
       <use style="stroke:#000000;stroke-width:0.6;" x="902.88" xlink:href="#m5716a62392" y="704.88"/>
      </g>
     </g>
    </g>
    <g id="xtick_20">
     <g id="line2d_39">
      <path clip-path="url(#pb49faef537)" d="M 947.52 704.88 
L 947.52 95.04 
" style="fill:none;stroke:#ffa500;stroke-dasharray:0.925,0.4;stroke-dashoffset:0;stroke-width:0.25;"/>
     </g>
     <g id="line2d_40">
      <g>
       <use style="stroke:#000000;stroke-width:0.6;" x="947.52" xlink:href="#m5716a62392" y="704.88"/>
      </g>
     </g>
    </g>
    <g id="xtick_21">
     <g id="line2d_41">
      <path clip-path="url(#pb49faef537)" d="M 992.16 704.88 
L 992.16 95.04 
" style="fill:none;stroke:#ffa500;stroke-dasharray:0.925,0.4;stroke-dashoffset:0;stroke-width:0.25;"/>
     </g>
     <g id="line2d_42">
      <g>
       <use style="stroke:#000000;stroke-width:0.6;" x="992.16" xlink:href="#m5716a62392" y="704.88"/>
      </g>
     </g>
    </g>
    <g id="text_7">
     <!-- Время t (с) -->
     <g transform="translate(562.15 733.156563)scale(0.1 -0.1)">
      <defs>
       <path d="M 1259 2228 
L 1259 519 
L 2272 519 
Q 2781 519 3026 730 
Q 3272 941 3272 1375 
Q 3272 1813 3026 2020 
Q 2781 2228 2272 2228 
L 1259 2228 
z
M 1259 4147 
L 1259 2741 
L 2194 2741 
Q 2656 2741 2882 2914 
Q 3109 3088 3109 3444 
Q 3109 3797 2882 3972 
Q 2656 4147 2194 4147 
L 1259 4147 
z
M 628 4666 
L 2241 4666 
Q 2963 4666 3353 4366 
Q 3744 4066 3744 3513 
Q 3744 3084 3544 2831 
Q 3344 2578 2956 2516 
Q 3422 2416 3680 2098 
Q 3938 1781 3938 1306 
Q 3938 681 3513 340 
Q 3088 0 2303 0 
L 628 0 
L 628 4666 
z
" id="DejaVuSans-412" transform="scale(0.015625)"/>
       <path d="M 1159 525 
L 1159 -1331 
L 581 -1331 
L 581 3500 
L 1159 3500 
L 1159 2969 
Q 1341 3281 1617 3432 
Q 1894 3584 2278 3584 
Q 2916 3584 3314 3078 
Q 3713 2572 3713 1747 
Q 3713 922 3314 415 
Q 2916 -91 2278 -91 
Q 1894 -91 1617 61 
Q 1341 213 1159 525 
z
M 3116 1747 
Q 3116 2381 2855 2742 
Q 2594 3103 2138 3103 
Q 1681 3103 1420 2742 
Q 1159 2381 1159 1747 
Q 1159 1113 1420 752 
Q 1681 391 2138 391 
Q 2594 391 2855 752 
Q 3116 1113 3116 1747 
z
" id="DejaVuSans-440" transform="scale(0.015625)"/>
       <path d="M 3597 1894 
L 3597 1613 
L 953 1613 
Q 991 1019 1311 708 
Q 1631 397 2203 397 
Q 2534 397 2845 478 
Q 3156 559 3463 722 
L 3463 178 
Q 3153 47 2828 -22 
Q 2503 -91 2169 -91 
Q 1331 -91 842 396 
Q 353 884 353 1716 
Q 353 2575 817 3079 
Q 1281 3584 2069 3584 
Q 2775 3584 3186 3129 
Q 3597 2675 3597 1894 
z
M 3022 2063 
Q 3016 2534 2758 2815 
Q 2500 3097 2075 3097 
Q 1594 3097 1305 2825 
Q 1016 2553 972 2059 
L 3022 2063 
z
" id="DejaVuSans-435" transform="scale(0.015625)"/>
       <path d="M 581 3500 
L 1422 3500 
L 2416 1156 
L 3413 3500 
L 4247 3500 
L 4247 0 
L 3669 0 
L 3669 2950 
L 2703 672 
L 2128 672 
L 1159 2950 
L 1159 0 
L 581 0 
L 581 3500 
z
" id="DejaVuSans-43c" transform="scale(0.015625)"/>
       <path d="M 1181 2491 
Q 1181 2231 1381 2084 
Q 1581 1938 1953 1938 
L 2728 1938 
L 2728 3041 
L 1953 3041 
Q 1581 3041 1381 2897 
Q 1181 2753 1181 2491 
z
M 363 0 
L 1431 1534 
Q 1069 1616 828 1830 
Q 588 2044 588 2491 
Q 588 2997 923 3248 
Q 1259 3500 1938 3500 
L 3306 3500 
L 3306 0 
L 2728 0 
L 2728 1478 
L 2013 1478 
L 981 0 
L 363 0 
z
" id="DejaVuSans-44f" transform="scale(0.015625)"/>
       <path id="DejaVuSans-20" transform="scale(0.015625)"/>
       <path d="M 1172 4494 
L 1172 3500 
L 2356 3500 
L 2356 3053 
L 1172 3053 
L 1172 1153 
Q 1172 725 1289 603 
Q 1406 481 1766 481 
L 2356 481 
L 2356 0 
L 1766 0 
Q 1100 0 847 248 
Q 594 497 594 1153 
L 594 3053 
L 172 3053 
L 172 3500 
L 594 3500 
L 594 4494 
L 1172 4494 
z
" id="DejaVuSans-74" transform="scale(0.015625)"/>
       <path d="M 1984 4856 
Q 1566 4138 1362 3434 
Q 1159 2731 1159 2009 
Q 1159 1288 1364 580 
Q 1569 -128 1984 -844 
L 1484 -844 
Q 1016 -109 783 600 
Q 550 1309 550 2009 
Q 550 2706 781 3412 
Q 1013 4119 1484 4856 
L 1984 4856 
z
" id="DejaVuSans-28" transform="scale(0.015625)"/>
       <path d="M 3122 3366 
L 3122 2828 
Q 2878 2963 2633 3030 
Q 2388 3097 2138 3097 
Q 1578 3097 1268 2742 
Q 959 2388 959 1747 
Q 959 1106 1268 751 
Q 1578 397 2138 397 
Q 2388 397 2633 464 
Q 2878 531 3122 666 
L 3122 134 
Q 2881 22 2623 -34 
Q 2366 -91 2075 -91 
Q 1284 -91 818 406 
Q 353 903 353 1747 
Q 353 2603 823 3093 
Q 1294 3584 2113 3584 
Q 2378 3584 2631 3529 
Q 2884 3475 3122 3366 
z
" id="DejaVuSans-441" transform="scale(0.015625)"/>
       <path d="M 513 4856 
L 1013 4856 
Q 1481 4119 1714 3412 
Q 1947 2706 1947 2009 
Q 1947 1309 1714 600 
Q 1481 -109 1013 -844 
L 513 -844 
Q 928 -128 1133 580 
Q 1338 1288 1338 2009 
Q 1338 2731 1133 3434 
Q 928 4138 513 4856 
z
" id="DejaVuSans-29" transform="scale(0.015625)"/>
      </defs>
      <use xlink:href="#DejaVuSans-412"/>
      <use x="68.603516" xlink:href="#DejaVuSans-440"/>
      <use x="132.080078" xlink:href="#DejaVuSans-435"/>
      <use x="193.603516" xlink:href="#DejaVuSans-43c"/>
      <use x="269.042969" xlink:href="#DejaVuSans-44f"/>
      <use x="329.199219" xlink:href="#DejaVuSans-20"/>
      <use x="360.986328" xlink:href="#DejaVuSans-74"/>
      <use x="400.195312" xlink:href="#DejaVuSans-20"/>
      <use x="431.982422" xlink:href="#DejaVuSans-28"/>
      <use x="470.996094" xlink:href="#DejaVuSans-441"/>
      <use x="525.976562" xlink:href="#DejaVuSans-29"/>
     </g>
    </g>
   </g>
   <g id="matplotlib.axis_2">
    <g id="ytick_1">
     <g id="line2d_43">
      <path clip-path="url(#pb49faef537)" d="M 144 704.88 
L 1036.8 704.88 
" style="fill:none;stroke:#ffa500;stroke-dasharray:1.665,0.72;stroke-dashoffset:0;stroke-width:0.45;"/>
     </g>
     <g id="line2d_44">
      <defs>
       <path d="M 0 0 
L -3.5 0 
" id="md4ac98e563" style="stroke:#000000;stroke-width:0.8;"/>
      </defs>
      <g>
       <use style="stroke:#000000;stroke-width:0.8;" x="144" xlink:href="#md4ac98e563" y="704.88"/>
      </g>
     </g>
     <g id="text_8">
      <!-- 0.0 -->
      <g transform="translate(121.096875 708.679219)scale(0.1 -0.1)">
       <defs>
        <path d="M 684 794 
L 1344 794 
L 1344 0 
L 684 0 
L 684 794 
z
" id="DejaVuSans-2e" transform="scale(0.015625)"/>
       </defs>
       <use xlink:href="#DejaVuSans-30"/>
       <use x="63.623047" xlink:href="#DejaVuSans-2e"/>
       <use x="95.410156" xlink:href="#DejaVuSans-30"/>
      </g>
     </g>
    </g>
    <g id="ytick_2">
     <g id="line2d_45">
      <path clip-path="url(#pb49faef537)" d="M 144 617.76 
L 1036.8 617.76 
" style="fill:none;stroke:#ffa500;stroke-dasharray:1.665,0.72;stroke-dashoffset:0;stroke-width:0.45;"/>
     </g>
     <g id="line2d_46">
      <g>
       <use style="stroke:#000000;stroke-width:0.8;" x="144" xlink:href="#md4ac98e563" y="617.76"/>
      </g>
     </g>
     <g id="text_9">
      <!-- 0.5 -->
      <g transform="translate(121.096875 621.559219)scale(0.1 -0.1)">
       <defs>
        <path d="M 691 4666 
L 3169 4666 
L 3169 4134 
L 1269 4134 
L 1269 2991 
Q 1406 3038 1543 3061 
Q 1681 3084 1819 3084 
Q 2600 3084 3056 2656 
Q 3513 2228 3513 1497 
Q 3513 744 3044 326 
Q 2575 -91 1722 -91 
Q 1428 -91 1123 -41 
Q 819 9 494 109 
L 494 744 
Q 775 591 1075 516 
Q 1375 441 1709 441 
Q 2250 441 2565 725 
Q 2881 1009 2881 1497 
Q 2881 1984 2565 2268 
Q 2250 2553 1709 2553 
Q 1456 2553 1204 2497 
Q 953 2441 691 2322 
L 691 4666 
z
" id="DejaVuSans-35" transform="scale(0.015625)"/>
       </defs>
       <use xlink:href="#DejaVuSans-30"/>
       <use x="63.623047" xlink:href="#DejaVuSans-2e"/>
       <use x="95.410156" xlink:href="#DejaVuSans-35"/>
      </g>
     </g>
    </g>
    <g id="ytick_3">
     <g id="line2d_47">
      <path clip-path="url(#pb49faef537)" d="M 144 530.64 
L 1036.8 530.64 
" style="fill:none;stroke:#ffa500;stroke-dasharray:1.665,0.72;stroke-dashoffset:0;stroke-width:0.45;"/>
     </g>
     <g id="line2d_48">
      <g>
       <use style="stroke:#000000;stroke-width:0.8;" x="144" xlink:href="#md4ac98e563" y="530.64"/>
      </g>
     </g>
     <g id="text_10">
      <!-- 1.0 -->
      <g transform="translate(121.096875 534.439219)scale(0.1 -0.1)">
       <use xlink:href="#DejaVuSans-31"/>
       <use x="63.623047" xlink:href="#DejaVuSans-2e"/>
       <use x="95.410156" xlink:href="#DejaVuSans-30"/>
      </g>
     </g>
    </g>
    <g id="ytick_4">
     <g id="line2d_49">
      <path clip-path="url(#pb49faef537)" d="M 144 443.52 
L 1036.8 443.52 
" style="fill:none;stroke:#ffa500;stroke-dasharray:1.665,0.72;stroke-dashoffset:0;stroke-width:0.45;"/>
     </g>
     <g id="line2d_50">
      <g>
       <use style="stroke:#000000;stroke-width:0.8;" x="144" xlink:href="#md4ac98e563" y="443.52"/>
      </g>
     </g>
     <g id="text_11">
      <!-- 1.5 -->
      <g transform="translate(121.096875 447.319219)scale(0.1 -0.1)">
       <use xlink:href="#DejaVuSans-31"/>
       <use x="63.623047" xlink:href="#DejaVuSans-2e"/>
       <use x="95.410156" xlink:href="#DejaVuSans-35"/>
      </g>
     </g>
    </g>
    <g id="ytick_5">
     <g id="line2d_51">
      <path clip-path="url(#pb49faef537)" d="M 144 356.4 
L 1036.8 356.4 
" style="fill:none;stroke:#ffa500;stroke-dasharray:1.665,0.72;stroke-dashoffset:0;stroke-width:0.45;"/>
     </g>
     <g id="line2d_52">
      <g>
       <use style="stroke:#000000;stroke-width:0.8;" x="144" xlink:href="#md4ac98e563" y="356.4"/>
      </g>
     </g>
     <g id="text_12">
      <!-- 2.0 -->
      <g transform="translate(121.096875 360.199219)scale(0.1 -0.1)">
       <use xlink:href="#DejaVuSans-32"/>
       <use x="63.623047" xlink:href="#DejaVuSans-2e"/>
       <use x="95.410156" xlink:href="#DejaVuSans-30"/>
      </g>
     </g>
    </g>
    <g id="ytick_6">
     <g id="line2d_53">
      <path clip-path="url(#pb49faef537)" d="M 144 269.28 
L 1036.8 269.28 
" style="fill:none;stroke:#ffa500;stroke-dasharray:1.665,0.72;stroke-dashoffset:0;stroke-width:0.45;"/>
     </g>
     <g id="line2d_54">
      <g>
       <use style="stroke:#000000;stroke-width:0.8;" x="144" xlink:href="#md4ac98e563" y="269.28"/>
      </g>
     </g>
     <g id="text_13">
      <!-- 2.5 -->
      <g transform="translate(121.096875 273.079219)scale(0.1 -0.1)">
       <use xlink:href="#DejaVuSans-32"/>
       <use x="63.623047" xlink:href="#DejaVuSans-2e"/>
       <use x="95.410156" xlink:href="#DejaVuSans-35"/>
      </g>
     </g>
    </g>
    <g id="ytick_7">
     <g id="line2d_55">
      <path clip-path="url(#pb49faef537)" d="M 144 182.16 
L 1036.8 182.16 
" style="fill:none;stroke:#ffa500;stroke-dasharray:1.665,0.72;stroke-dashoffset:0;stroke-width:0.45;"/>
     </g>
     <g id="line2d_56">
      <g>
       <use style="stroke:#000000;stroke-width:0.8;" x="144" xlink:href="#md4ac98e563" y="182.16"/>
      </g>
     </g>
     <g id="text_14">
      <!-- 3.0 -->
      <g transform="translate(121.096875 185.959219)scale(0.1 -0.1)">
       <defs>
        <path d="M 2597 2516 
Q 3050 2419 3304 2112 
Q 3559 1806 3559 1356 
Q 3559 666 3084 287 
Q 2609 -91 1734 -91 
Q 1441 -91 1130 -33 
Q 819 25 488 141 
L 488 750 
Q 750 597 1062 519 
Q 1375 441 1716 441 
Q 2309 441 2620 675 
Q 2931 909 2931 1356 
Q 2931 1769 2642 2001 
Q 2353 2234 1838 2234 
L 1294 2234 
L 1294 2753 
L 1863 2753 
Q 2328 2753 2575 2939 
Q 2822 3125 2822 3475 
Q 2822 3834 2567 4026 
Q 2313 4219 1838 4219 
Q 1578 4219 1281 4162 
Q 984 4106 628 3988 
L 628 4550 
Q 988 4650 1302 4700 
Q 1616 4750 1894 4750 
Q 2613 4750 3031 4423 
Q 3450 4097 3450 3541 
Q 3450 3153 3228 2886 
Q 3006 2619 2597 2516 
z
" id="DejaVuSans-33" transform="scale(0.015625)"/>
       </defs>
       <use xlink:href="#DejaVuSans-33"/>
       <use x="63.623047" xlink:href="#DejaVuSans-2e"/>
       <use x="95.410156" xlink:href="#DejaVuSans-30"/>
      </g>
     </g>
    </g>
    <g id="ytick_8">
     <g id="line2d_57">
      <path clip-path="url(#pb49faef537)" d="M 144 95.04 
L 1036.8 95.04 
" style="fill:none;stroke:#ffa500;stroke-dasharray:1.665,0.72;stroke-dashoffset:0;stroke-width:0.45;"/>
     </g>
     <g id="line2d_58">
      <g>
       <use style="stroke:#000000;stroke-width:0.8;" x="144" xlink:href="#md4ac98e563" y="95.04"/>
      </g>
     </g>
     <g id="text_15">
      <!-- 3.5 -->
      <g transform="translate(121.096875 98.839219)scale(0.1 -0.1)">
       <use xlink:href="#DejaVuSans-33"/>
       <use x="63.623047" xlink:href="#DejaVuSans-2e"/>
       <use x="95.410156" xlink:href="#DejaVuSans-35"/>
      </g>
     </g>
    </g>
    <g id="ytick_9">
     <g id="line2d_59">
      <path clip-path="url(#pb49faef537)" d="M 144 687.456 
L 1036.8 687.456 
" style="fill:none;stroke:#ffa500;stroke-dasharray:0.925,0.4;stroke-dashoffset:0;stroke-width:0.25;"/>
     </g>
     <g id="line2d_60">
      <defs>
       <path d="M 0 0 
L -2 0 
" id="mbb19b39a49" style="stroke:#000000;stroke-width:0.6;"/>
      </defs>
      <g>
       <use style="stroke:#000000;stroke-width:0.6;" x="144" xlink:href="#mbb19b39a49" y="687.456"/>
      </g>
     </g>
    </g>
    <g id="ytick_10">
     <g id="line2d_61">
      <path clip-path="url(#pb49faef537)" d="M 144 670.032 
L 1036.8 670.032 
" style="fill:none;stroke:#ffa500;stroke-dasharray:0.925,0.4;stroke-dashoffset:0;stroke-width:0.25;"/>
     </g>
     <g id="line2d_62">
      <g>
       <use style="stroke:#000000;stroke-width:0.6;" x="144" xlink:href="#mbb19b39a49" y="670.032"/>
      </g>
     </g>
    </g>
    <g id="ytick_11">
     <g id="line2d_63">
      <path clip-path="url(#pb49faef537)" d="M 144 652.608 
L 1036.8 652.608 
" style="fill:none;stroke:#ffa500;stroke-dasharray:0.925,0.4;stroke-dashoffset:0;stroke-width:0.25;"/>
     </g>
     <g id="line2d_64">
      <g>
       <use style="stroke:#000000;stroke-width:0.6;" x="144" xlink:href="#mbb19b39a49" y="652.608"/>
      </g>
     </g>
    </g>
    <g id="ytick_12">
     <g id="line2d_65">
      <path clip-path="url(#pb49faef537)" d="M 144 635.184 
L 1036.8 635.184 
" style="fill:none;stroke:#ffa500;stroke-dasharray:0.925,0.4;stroke-dashoffset:0;stroke-width:0.25;"/>
     </g>
     <g id="line2d_66">
      <g>
       <use style="stroke:#000000;stroke-width:0.6;" x="144" xlink:href="#mbb19b39a49" y="635.184"/>
      </g>
     </g>
    </g>
    <g id="ytick_13">
     <g id="line2d_67">
      <path clip-path="url(#pb49faef537)" d="M 144 600.336 
L 1036.8 600.336 
" style="fill:none;stroke:#ffa500;stroke-dasharray:0.925,0.4;stroke-dashoffset:0;stroke-width:0.25;"/>
     </g>
     <g id="line2d_68">
      <g>
       <use style="stroke:#000000;stroke-width:0.6;" x="144" xlink:href="#mbb19b39a49" y="600.336"/>
      </g>
     </g>
    </g>
    <g id="ytick_14">
     <g id="line2d_69">
      <path clip-path="url(#pb49faef537)" d="M 144 582.912 
L 1036.8 582.912 
" style="fill:none;stroke:#ffa500;stroke-dasharray:0.925,0.4;stroke-dashoffset:0;stroke-width:0.25;"/>
     </g>
     <g id="line2d_70">
      <g>
       <use style="stroke:#000000;stroke-width:0.6;" x="144" xlink:href="#mbb19b39a49" y="582.912"/>
      </g>
     </g>
    </g>
    <g id="ytick_15">
     <g id="line2d_71">
      <path clip-path="url(#pb49faef537)" d="M 144 565.488 
L 1036.8 565.488 
" style="fill:none;stroke:#ffa500;stroke-dasharray:0.925,0.4;stroke-dashoffset:0;stroke-width:0.25;"/>
     </g>
     <g id="line2d_72">
      <g>
       <use style="stroke:#000000;stroke-width:0.6;" x="144" xlink:href="#mbb19b39a49" y="565.488"/>
      </g>
     </g>
    </g>
    <g id="ytick_16">
     <g id="line2d_73">
      <path clip-path="url(#pb49faef537)" d="M 144 548.064 
L 1036.8 548.064 
" style="fill:none;stroke:#ffa500;stroke-dasharray:0.925,0.4;stroke-dashoffset:0;stroke-width:0.25;"/>
     </g>
     <g id="line2d_74">
      <g>
       <use style="stroke:#000000;stroke-width:0.6;" x="144" xlink:href="#mbb19b39a49" y="548.064"/>
      </g>
     </g>
    </g>
    <g id="ytick_17">
     <g id="line2d_75">
      <path clip-path="url(#pb49faef537)" d="M 144 513.216 
L 1036.8 513.216 
" style="fill:none;stroke:#ffa500;stroke-dasharray:0.925,0.4;stroke-dashoffset:0;stroke-width:0.25;"/>
     </g>
     <g id="line2d_76">
      <g>
       <use style="stroke:#000000;stroke-width:0.6;" x="144" xlink:href="#mbb19b39a49" y="513.216"/>
      </g>
     </g>
    </g>
    <g id="ytick_18">
     <g id="line2d_77">
      <path clip-path="url(#pb49faef537)" d="M 144 495.792 
L 1036.8 495.792 
" style="fill:none;stroke:#ffa500;stroke-dasharray:0.925,0.4;stroke-dashoffset:0;stroke-width:0.25;"/>
     </g>
     <g id="line2d_78">
      <g>
       <use style="stroke:#000000;stroke-width:0.6;" x="144" xlink:href="#mbb19b39a49" y="495.792"/>
      </g>
     </g>
    </g>
    <g id="ytick_19">
     <g id="line2d_79">
      <path clip-path="url(#pb49faef537)" d="M 144 478.368 
L 1036.8 478.368 
" style="fill:none;stroke:#ffa500;stroke-dasharray:0.925,0.4;stroke-dashoffset:0;stroke-width:0.25;"/>
     </g>
     <g id="line2d_80">
      <g>
       <use style="stroke:#000000;stroke-width:0.6;" x="144" xlink:href="#mbb19b39a49" y="478.368"/>
      </g>
     </g>
    </g>
    <g id="ytick_20">
     <g id="line2d_81">
      <path clip-path="url(#pb49faef537)" d="M 144 460.944 
L 1036.8 460.944 
" style="fill:none;stroke:#ffa500;stroke-dasharray:0.925,0.4;stroke-dashoffset:0;stroke-width:0.25;"/>
     </g>
     <g id="line2d_82">
      <g>
       <use style="stroke:#000000;stroke-width:0.6;" x="144" xlink:href="#mbb19b39a49" y="460.944"/>
      </g>
     </g>
    </g>
    <g id="ytick_21">
     <g id="line2d_83">
      <path clip-path="url(#pb49faef537)" d="M 144 426.096 
L 1036.8 426.096 
" style="fill:none;stroke:#ffa500;stroke-dasharray:0.925,0.4;stroke-dashoffset:0;stroke-width:0.25;"/>
     </g>
     <g id="line2d_84">
      <g>
       <use style="stroke:#000000;stroke-width:0.6;" x="144" xlink:href="#mbb19b39a49" y="426.096"/>
      </g>
     </g>
    </g>
    <g id="ytick_22">
     <g id="line2d_85">
      <path clip-path="url(#pb49faef537)" d="M 144 408.672 
L 1036.8 408.672 
" style="fill:none;stroke:#ffa500;stroke-dasharray:0.925,0.4;stroke-dashoffset:0;stroke-width:0.25;"/>
     </g>
     <g id="line2d_86">
      <g>
       <use style="stroke:#000000;stroke-width:0.6;" x="144" xlink:href="#mbb19b39a49" y="408.672"/>
      </g>
     </g>
    </g>
    <g id="ytick_23">
     <g id="line2d_87">
      <path clip-path="url(#pb49faef537)" d="M 144 391.248 
L 1036.8 391.248 
" style="fill:none;stroke:#ffa500;stroke-dasharray:0.925,0.4;stroke-dashoffset:0;stroke-width:0.25;"/>
     </g>
     <g id="line2d_88">
      <g>
       <use style="stroke:#000000;stroke-width:0.6;" x="144" xlink:href="#mbb19b39a49" y="391.248"/>
      </g>
     </g>
    </g>
    <g id="ytick_24">
     <g id="line2d_89">
      <path clip-path="url(#pb49faef537)" d="M 144 373.824 
L 1036.8 373.824 
" style="fill:none;stroke:#ffa500;stroke-dasharray:0.925,0.4;stroke-dashoffset:0;stroke-width:0.25;"/>
     </g>
     <g id="line2d_90">
      <g>
       <use style="stroke:#000000;stroke-width:0.6;" x="144" xlink:href="#mbb19b39a49" y="373.824"/>
      </g>
     </g>
    </g>
    <g id="ytick_25">
     <g id="line2d_91">
      <path clip-path="url(#pb49faef537)" d="M 144 338.976 
L 1036.8 338.976 
" style="fill:none;stroke:#ffa500;stroke-dasharray:0.925,0.4;stroke-dashoffset:0;stroke-width:0.25;"/>
     </g>
     <g id="line2d_92">
      <g>
       <use style="stroke:#000000;stroke-width:0.6;" x="144" xlink:href="#mbb19b39a49" y="338.976"/>
      </g>
     </g>
    </g>
    <g id="ytick_26">
     <g id="line2d_93">
      <path clip-path="url(#pb49faef537)" d="M 144 321.552 
L 1036.8 321.552 
" style="fill:none;stroke:#ffa500;stroke-dasharray:0.925,0.4;stroke-dashoffset:0;stroke-width:0.25;"/>
     </g>
     <g id="line2d_94">
      <g>
       <use style="stroke:#000000;stroke-width:0.6;" x="144" xlink:href="#mbb19b39a49" y="321.552"/>
      </g>
     </g>
    </g>
    <g id="ytick_27">
     <g id="line2d_95">
      <path clip-path="url(#pb49faef537)" d="M 144 304.128 
L 1036.8 304.128 
" style="fill:none;stroke:#ffa500;stroke-dasharray:0.925,0.4;stroke-dashoffset:0;stroke-width:0.25;"/>
     </g>
     <g id="line2d_96">
      <g>
       <use style="stroke:#000000;stroke-width:0.6;" x="144" xlink:href="#mbb19b39a49" y="304.128"/>
      </g>
     </g>
    </g>
    <g id="ytick_28">
     <g id="line2d_97">
      <path clip-path="url(#pb49faef537)" d="M 144 286.704 
L 1036.8 286.704 
" style="fill:none;stroke:#ffa500;stroke-dasharray:0.925,0.4;stroke-dashoffset:0;stroke-width:0.25;"/>
     </g>
     <g id="line2d_98">
      <g>
       <use style="stroke:#000000;stroke-width:0.6;" x="144" xlink:href="#mbb19b39a49" y="286.704"/>
      </g>
     </g>
    </g>
    <g id="ytick_29">
     <g id="line2d_99">
      <path clip-path="url(#pb49faef537)" d="M 144 251.856 
L 1036.8 251.856 
" style="fill:none;stroke:#ffa500;stroke-dasharray:0.925,0.4;stroke-dashoffset:0;stroke-width:0.25;"/>
     </g>
     <g id="line2d_100">
      <g>
       <use style="stroke:#000000;stroke-width:0.6;" x="144" xlink:href="#mbb19b39a49" y="251.856"/>
      </g>
     </g>
    </g>
    <g id="ytick_30">
     <g id="line2d_101">
      <path clip-path="url(#pb49faef537)" d="M 144 234.432 
L 1036.8 234.432 
" style="fill:none;stroke:#ffa500;stroke-dasharray:0.925,0.4;stroke-dashoffset:0;stroke-width:0.25;"/>
     </g>
     <g id="line2d_102">
      <g>
       <use style="stroke:#000000;stroke-width:0.6;" x="144" xlink:href="#mbb19b39a49" y="234.432"/>
      </g>
     </g>
    </g>
    <g id="ytick_31">
     <g id="line2d_103">
      <path clip-path="url(#pb49faef537)" d="M 144 217.008 
L 1036.8 217.008 
" style="fill:none;stroke:#ffa500;stroke-dasharray:0.925,0.4;stroke-dashoffset:0;stroke-width:0.25;"/>
     </g>
     <g id="line2d_104">
      <g>
       <use style="stroke:#000000;stroke-width:0.6;" x="144" xlink:href="#mbb19b39a49" y="217.008"/>
      </g>
     </g>
    </g>
    <g id="ytick_32">
     <g id="line2d_105">
      <path clip-path="url(#pb49faef537)" d="M 144 199.584 
L 1036.8 199.584 
" style="fill:none;stroke:#ffa500;stroke-dasharray:0.925,0.4;stroke-dashoffset:0;stroke-width:0.25;"/>
     </g>
     <g id="line2d_106">
      <g>
       <use style="stroke:#000000;stroke-width:0.6;" x="144" xlink:href="#mbb19b39a49" y="199.584"/>
      </g>
     </g>
    </g>
    <g id="ytick_33">
     <g id="line2d_107">
      <path clip-path="url(#pb49faef537)" d="M 144 164.736 
L 1036.8 164.736 
" style="fill:none;stroke:#ffa500;stroke-dasharray:0.925,0.4;stroke-dashoffset:0;stroke-width:0.25;"/>
     </g>
     <g id="line2d_108">
      <g>
       <use style="stroke:#000000;stroke-width:0.6;" x="144" xlink:href="#mbb19b39a49" y="164.736"/>
      </g>
     </g>
    </g>
    <g id="ytick_34">
     <g id="line2d_109">
      <path clip-path="url(#pb49faef537)" d="M 144 147.312 
L 1036.8 147.312 
" style="fill:none;stroke:#ffa500;stroke-dasharray:0.925,0.4;stroke-dashoffset:0;stroke-width:0.25;"/>
     </g>
     <g id="line2d_110">
      <g>
       <use style="stroke:#000000;stroke-width:0.6;" x="144" xlink:href="#mbb19b39a49" y="147.312"/>
      </g>
     </g>
    </g>
    <g id="ytick_35">
     <g id="line2d_111">
      <path clip-path="url(#pb49faef537)" d="M 144 129.888 
L 1036.8 129.888 
" style="fill:none;stroke:#ffa500;stroke-dasharray:0.925,0.4;stroke-dashoffset:0;stroke-width:0.25;"/>
     </g>
     <g id="line2d_112">
      <g>
       <use style="stroke:#000000;stroke-width:0.6;" x="144" xlink:href="#mbb19b39a49" y="129.888"/>
      </g>
     </g>
    </g>
    <g id="ytick_36">
     <g id="line2d_113">
      <path clip-path="url(#pb49faef537)" d="M 144 112.464 
L 1036.8 112.464 
" style="fill:none;stroke:#ffa500;stroke-dasharray:0.925,0.4;stroke-dashoffset:0;stroke-width:0.25;"/>
     </g>
     <g id="line2d_114">
      <g>
       <use style="stroke:#000000;stroke-width:0.6;" x="144" xlink:href="#mbb19b39a49" y="112.464"/>
      </g>
     </g>
    </g>
    <g id="text_16">
     <!-- Напряжение U (В) -->
     <g transform="translate(115.017187 447.580312)rotate(-90)scale(0.1 -0.1)">
      <defs>
       <path d="M 628 4666 
L 1259 4666 
L 1259 2753 
L 3553 2753 
L 3553 4666 
L 4184 4666 
L 4184 0 
L 3553 0 
L 3553 2222 
L 1259 2222 
L 1259 0 
L 628 0 
L 628 4666 
z
" id="DejaVuSans-41d" transform="scale(0.015625)"/>
       <path d="M 2194 1759 
Q 1497 1759 1228 1600 
Q 959 1441 959 1056 
Q 959 750 1161 570 
Q 1363 391 1709 391 
Q 2188 391 2477 730 
Q 2766 1069 2766 1631 
L 2766 1759 
L 2194 1759 
z
M 3341 1997 
L 3341 0 
L 2766 0 
L 2766 531 
Q 2569 213 2275 61 
Q 1981 -91 1556 -91 
Q 1019 -91 701 211 
Q 384 513 384 1019 
Q 384 1609 779 1909 
Q 1175 2209 1959 2209 
L 2766 2209 
L 2766 2266 
Q 2766 2663 2505 2880 
Q 2244 3097 1772 3097 
Q 1472 3097 1187 3025 
Q 903 2953 641 2809 
L 641 3341 
Q 956 3463 1253 3523 
Q 1550 3584 1831 3584 
Q 2591 3584 2966 3190 
Q 3341 2797 3341 1997 
z
" id="DejaVuSans-430" transform="scale(0.015625)"/>
       <path d="M 3603 3500 
L 3603 0 
L 3025 0 
L 3025 3041 
L 1159 3041 
L 1159 0 
L 581 0 
L 581 3500 
L 3603 3500 
z
" id="DejaVuSans-43f" transform="scale(0.015625)"/>
       <path d="M 2597 3500 
L 3169 3500 
L 3169 1856 
L 4697 3500 
L 5366 3500 
L 4109 2153 
L 5547 0 
L 4931 0 
L 3753 1769 
L 3169 1141 
L 3169 0 
L 2597 0 
L 2597 1141 
L 2013 1769 
L 834 0 
L 219 0 
L 1656 2153 
L 400 3500 
L 1069 3500 
L 2597 1856 
L 2597 3500 
z
" id="DejaVuSans-436" transform="scale(0.015625)"/>
       <path d="M 581 3500 
L 1159 3500 
L 1159 2072 
L 3025 2072 
L 3025 3500 
L 3603 3500 
L 3603 0 
L 3025 0 
L 3025 1613 
L 1159 1613 
L 1159 0 
L 581 0 
L 581 3500 
z
" id="DejaVuSans-43d" transform="scale(0.015625)"/>
       <path d="M 3578 3500 
L 3578 0 
L 3006 0 
L 3006 2809 
L 1319 0 
L 581 0 
L 581 3500 
L 1153 3500 
L 1153 697 
L 2838 3500 
L 3578 3500 
z
" id="DejaVuSans-438" transform="scale(0.015625)"/>
       <path d="M 556 4666 
L 1191 4666 
L 1191 1831 
Q 1191 1081 1462 751 
Q 1734 422 2344 422 
Q 2950 422 3222 751 
Q 3494 1081 3494 1831 
L 3494 4666 
L 4128 4666 
L 4128 1753 
Q 4128 841 3676 375 
Q 3225 -91 2344 -91 
Q 1459 -91 1007 375 
Q 556 841 556 1753 
L 556 4666 
z
" id="DejaVuSans-55" transform="scale(0.015625)"/>
      </defs>
      <use xlink:href="#DejaVuSans-41d"/>
      <use x="75.195312" xlink:href="#DejaVuSans-430"/>
      <use x="136.474609" xlink:href="#DejaVuSans-43f"/>
      <use x="201.855469" xlink:href="#DejaVuSans-440"/>
      <use x="265.332031" xlink:href="#DejaVuSans-44f"/>
      <use x="325.488281" xlink:href="#DejaVuSans-436"/>
      <use x="415.576172" xlink:href="#DejaVuSans-435"/>
      <use x="477.099609" xlink:href="#DejaVuSans-43d"/>
      <use x="542.480469" xlink:href="#DejaVuSans-438"/>
      <use x="607.470703" xlink:href="#DejaVuSans-435"/>
      <use x="668.994141" xlink:href="#DejaVuSans-20"/>
      <use x="700.78125" xlink:href="#DejaVuSans-55"/>
      <use x="773.974609" xlink:href="#DejaVuSans-20"/>
      <use x="805.761719" xlink:href="#DejaVuSans-28"/>
      <use x="844.775391" xlink:href="#DejaVuSans-412"/>
      <use x="913.378906" xlink:href="#DejaVuSans-29"/>
     </g>
    </g>
   </g>
   <g id="line2d_115">
    <path clip-path="url(#pb49faef537)" d="M 144 704.88 
L 144.98208 702.893664 
L 145.96416 694.94832 
L 148.9104 683.030304 
L 149.89248 675.08496 
L 151.85664 667.139616 
L 152.83872 659.194272 
L 153.8208 659.194272 
L 154.80288 651.248928 
L 155.78496 651.248928 
L 156.76704 643.303584 
L 157.74912 643.303584 
L 158.7312 631.385568 
L 171.49824 579.740832 
L 172.48032 579.740832 
L 173.4624 571.795488 
L 177.39072 555.9048 
L 178.3728 555.9048 
L 179.35488 547.959456 
L 180.33696 547.959456 
L 188.1936 516.17808 
L 189.17568 516.17808 
L 193.104 500.287392 
L 194.08608 500.287392 
L 198.0144 484.396704 
L 198.99648 484.396704 
L 200.96064 476.45136 
L 201.94272 476.45136 
L 203.90688 468.506016 
L 204.88896 468.506016 
L 206.85312 460.560672 
L 207.8352 460.560672 
L 209.79936 452.615328 
L 211.76352 452.615328 
L 212.7456 444.669984 
L 213.72768 444.669984 
L 214.70976 440.697312 
L 215.69184 440.697312 
L 217.656 432.751968 
L 218.63808 432.751968 
L 219.62016 428.779296 
L 220.60224 428.779296 
L 222.5664 420.833952 
L 224.53056 420.833952 
L 226.49472 412.888608 
L 228.45888 412.888608 
L 230.42304 404.943264 
L 231.40512 404.943264 
L 232.3872 400.970592 
L 233.36928 400.970592 
L 234.35136 396.99792 
L 235.33344 396.99792 
L 236.31552 393.025248 
L 237.2976 393.025248 
L 238.27968 389.052576 
L 241.22592 389.052576 
L 242.208 381.107232 
L 244.17216 381.107232 
L 245.15424 377.13456 
L 246.13632 377.13456 
L 247.1184 373.161888 
L 249.08256 373.161888 
L 250.06464 369.189216 
L 251.04672 369.189216 
L 252.0288 365.216544 
L 253.01088 365.216544 
L 253.99296 361.243872 
L 256.9392 361.243872 
L 258.90336 353.298528 
L 260.86752 353.298528 
L 261.8496 349.325856 
L 263.81376 349.325856 
L 264.79584 345.353184 
L 265.77792 345.353184 
L 266.76 341.380512 
L 269.70624 341.380512 
L 270.68832 337.40784 
L 271.6704 337.40784 
L 272.65248 333.435168 
L 274.61664 333.435168 
L 275.59872 329.462496 
L 278.54496 329.462496 
L 280.50912 321.517152 
L 286.4016 321.517152 
L 288.36576 313.571808 
L 292.29408 313.571808 
L 293.27616 309.599136 
L 296.2224 309.599136 
L 297.20448 305.626464 
L 299.16864 305.626464 
L 300.15072 301.653792 
L 302.11488 301.653792 
L 303.09696 297.68112 
L 307.02528 297.68112 
L 308.00736 293.708448 
L 311.93568 293.708448 
L 312.91776 289.735776 
L 316.84608 289.735776 
L 317.82816 285.763104 
L 321.75648 285.763104 
L 322.73856 281.790432 
L 324.70272 281.790432 
L 325.6848 277.81776 
L 326.66688 281.790432 
L 327.64896 277.81776 
L 330.5952 277.81776 
L 331.57728 273.845088 
L 338.45184 273.845088 
L 339.43392 269.872416 
L 344.34432 269.872416 
L 345.3264 265.899744 
L 350.2368 265.899744 
L 351.21888 261.927072 
L 355.1472 261.927072 
L 356.12928 257.9544 
L 366.93216 257.9544 
L 367.91424 253.981728 
L 375.77088 253.981728 
L 376.75296 250.009056 
L 377.73504 253.981728 
L 378.71712 250.009056 
L 383.62752 250.009056 
L 384.6096 246.036384 
L 385.59168 250.009056 
L 386.57376 246.036384 
L 395.41248 246.036384 
L 396.39456 242.063712 
L 405.23328 242.063712 
L 406.21536 238.09104 
L 415.05408 238.09104 
L 416.03616 234.118368 
L 417.01824 238.09104 
L 418.00032 238.09104 
L 418.9824 234.118368 
L 427.82112 234.118368 
L 428.8032 230.145696 
L 429.78528 234.118368 
L 430.76736 234.118368 
L 431.74944 230.145696 
L 432.73152 234.118368 
L 433.7136 234.118368 
L 434.69568 230.145696 
L 442.55232 230.145696 
L 443.5344 226.173024 
L 444.51648 230.145696 
L 445.49856 230.145696 
L 446.48064 226.173024 
L 447.46272 226.173024 
L 448.4448 230.145696 
L 451.39104 230.145696 
L 452.37312 226.173024 
L 471.03264 226.173024 
L 472.01472 222.200352 
L 472.9968 226.173024 
L 473.97888 222.200352 
L 495.58464 222.200352 
L 496.56672 218.22768 
L 497.5488 218.22768 
L 498.53088 222.200352 
L 499.51296 222.200352 
L 500.49504 218.22768 
L 501.47712 218.22768 
L 502.4592 222.200352 
L 503.44128 218.22768 
L 520.13664 218.22768 
L 521.11872 214.255008 
L 522.1008 222.200352 
L 523.08288 226.173024 
L 524.06496 226.173024 
L 525.04704 234.118368 
L 527.0112 242.063712 
L 527.99328 250.009056 
L 528.97536 250.009056 
L 529.95744 257.9544 
L 530.93952 257.9544 
L 531.9216 265.899744 
L 533.88576 273.845088 
L 534.86784 273.845088 
L 535.84992 281.790432 
L 536.832 281.790432 
L 546.6528 321.517152 
L 547.63488 321.517152 
L 552.54528 341.380512 
L 553.52736 341.380512 
L 554.50944 349.325856 
L 555.49152 349.325856 
L 556.4736 353.298528 
L 557.45568 353.298528 
L 562.36608 373.161888 
L 563.34816 373.161888 
L 567.27648 389.052576 
L 568.25856 389.052576 
L 570.22272 396.99792 
L 571.2048 396.99792 
L 572.18688 400.970592 
L 573.16896 400.970592 
L 576.1152 412.888608 
L 577.09728 412.888608 
L 578.07936 416.86128 
L 579.06144 416.86128 
L 581.0256 424.806624 
L 582.00768 424.806624 
L 583.97184 432.751968 
L 584.95392 432.751968 
L 585.936 436.72464 
L 586.91808 436.72464 
L 587.90016 440.697312 
L 588.88224 440.697312 
L 589.86432 444.669984 
L 590.8464 444.669984 
L 591.82848 448.642656 
L 592.81056 448.642656 
L 593.79264 452.615328 
L 594.77472 452.615328 
L 595.7568 456.588 
L 596.73888 456.588 
L 598.70304 464.533344 
L 600.6672 464.533344 
L 601.64928 468.506016 
L 602.63136 468.506016 
L 603.61344 472.478688 
L 604.59552 472.478688 
L 606.55968 480.424032 
L 608.52384 480.424032 
L 609.50592 484.396704 
L 610.488 484.396704 
L 611.47008 488.369376 
L 612.45216 488.369376 
L 613.43424 492.342048 
L 614.41632 492.342048 
L 615.3984 496.31472 
L 617.36256 496.31472 
L 618.34464 500.287392 
L 619.32672 500.287392 
L 620.3088 504.260064 
L 621.29088 504.260064 
L 622.27296 508.232736 
L 623.25504 508.232736 
L 624.23712 512.205408 
L 627.18336 512.205408 
L 629.14752 520.150752 
L 631.11168 520.150752 
L 632.09376 524.123424 
L 633.07584 524.123424 
L 634.05792 528.096096 
L 637.00416 528.096096 
L 637.98624 532.068768 
L 638.96832 532.068768 
L 639.9504 536.04144 
L 641.91456 536.04144 
L 642.89664 540.014112 
L 643.87872 540.014112 
L 644.8608 543.986784 
L 646.82496 543.986784 
L 647.80704 547.959456 
L 650.75328 547.959456 
L 651.73536 551.932128 
L 653.69952 551.932128 
L 654.6816 555.9048 
L 656.64576 555.9048 
L 657.62784 559.877472 
L 660.57408 559.877472 
L 661.55616 563.850144 
L 662.53824 563.850144 
L 663.52032 567.822816 
L 666.46656 567.822816 
L 667.44864 571.795488 
L 669.4128 571.795488 
L 670.39488 575.76816 
L 671.37696 575.76816 
L 672.35904 579.740832 
L 678.25152 579.740832 
L 679.2336 583.713504 
L 681.19776 583.713504 
L 682.17984 587.686176 
L 684.144 587.686176 
L 685.12608 591.658848 
L 689.0544 591.658848 
L 690.03648 595.63152 
L 692.98272 595.63152 
L 693.9648 599.604192 
L 695.92896 599.604192 
L 696.91104 603.576864 
L 700.83936 603.576864 
L 701.82144 607.549536 
L 705.74976 607.549536 
L 706.73184 611.522208 
L 707.71392 607.549536 
L 708.696 611.522208 
L 710.66016 611.522208 
L 711.64224 615.49488 
L 715.57056 615.49488 
L 716.55264 619.467552 
L 720.48096 619.467552 
L 721.46304 623.440224 
L 725.39136 623.440224 
L 726.37344 627.412896 
L 732.26592 627.412896 
L 733.248 631.385568 
L 737.17632 631.385568 
L 738.1584 635.35824 
L 742.08672 635.35824 
L 743.0688 639.330912 
L 744.05088 635.35824 
L 745.03296 639.330912 
L 747.9792 639.330912 
L 748.96128 643.303584 
L 758.78208 643.303584 
L 759.76416 647.276256 
L 766.63872 647.276256 
L 767.6208 651.248928 
L 772.5312 651.248928 
L 773.51328 655.2216 
L 782.352 655.2216 
L 783.33408 659.194272 
L 793.15488 659.194272 
L 794.13696 663.166944 
L 801.9936 663.166944 
L 802.97568 667.139616 
L 803.95776 663.166944 
L 804.93984 667.139616 
L 815.74272 667.139616 
L 816.7248 671.112288 
L 825.56352 671.112288 
L 826.5456 675.08496 
L 842.25888 675.08496 
L 843.24096 679.057632 
L 858.95424 679.057632 
L 859.93632 683.030304 
L 860.9184 679.057632 
L 861.90048 683.030304 
L 877.61376 683.030304 
L 878.59584 687.002976 
L 899.21952 687.002976 
L 900.2016 690.975648 
L 901.18368 687.002976 
L 904.12992 687.002976 
L 905.112 690.975648 
L 906.09408 690.975648 
L 907.07616 687.002976 
L 908.05824 690.975648 
L 927.69984 690.975648 
L 928.68192 694.94832 
L 929.664 690.975648 
L 937.52064 690.975648 
L 938.50272 694.94832 
L 940.46688 694.94832 
L 941.44896 690.975648 
L 942.43104 694.94832 
L 968.9472 694.94832 
L 969.92928 698.920992 
L 970.91136 694.94832 
L 972.87552 694.94832 
L 973.8576 698.920992 
L 1025.90784 698.920992 
L 1025.90784 698.920992 
" style="fill:none;stroke:#0000ff;stroke-linecap:square;stroke-width:1.5;"/>
    <defs>
     <path d="M -3 3 
L 3 3 
L 3 -3 
L -3 -3 
z
" id="mf94f773634" style="stroke:#0000ff;stroke-linejoin:miter;"/>
    </defs>
    <g clip-path="url(#pb49faef537)">
     <use style="fill:#0000ff;stroke:#0000ff;stroke-linejoin:miter;" x="144" xlink:href="#mf94f773634" y="704.88"/>
     <use style="fill:#0000ff;stroke:#0000ff;stroke-linejoin:miter;" x="212.7456" xlink:href="#mf94f773634" y="444.669984"/>
     <use style="fill:#0000ff;stroke:#0000ff;stroke-linejoin:miter;" x="281.4912" xlink:href="#mf94f773634" y="321.517152"/>
     <use style="fill:#0000ff;stroke:#0000ff;stroke-linejoin:miter;" x="350.2368" xlink:href="#mf94f773634" y="265.899744"/>
     <use style="fill:#0000ff;stroke:#0000ff;stroke-linejoin:miter;" x="418.9824" xlink:href="#mf94f773634" y="234.118368"/>
     <use style="fill:#0000ff;stroke:#0000ff;stroke-linejoin:miter;" x="487.728" xlink:href="#mf94f773634" y="222.200352"/>
     <use style="fill:#0000ff;stroke:#0000ff;stroke-linejoin:miter;" x="556.4736" xlink:href="#mf94f773634" y="353.298528"/>
     <use style="fill:#0000ff;stroke:#0000ff;stroke-linejoin:miter;" x="625.2192" xlink:href="#mf94f773634" y="512.205408"/>
     <use style="fill:#0000ff;stroke:#0000ff;stroke-linejoin:miter;" x="693.9648" xlink:href="#mf94f773634" y="599.604192"/>
     <use style="fill:#0000ff;stroke:#0000ff;stroke-linejoin:miter;" x="762.7104" xlink:href="#mf94f773634" y="647.276256"/>
     <use style="fill:#0000ff;stroke:#0000ff;stroke-linejoin:miter;" x="831.456" xlink:href="#mf94f773634" y="675.08496"/>
     <use style="fill:#0000ff;stroke:#0000ff;stroke-linejoin:miter;" x="900.2016" xlink:href="#mf94f773634" y="690.975648"/>
     <use style="fill:#0000ff;stroke:#0000ff;stroke-linejoin:miter;" x="968.9472" xlink:href="#mf94f773634" y="694.94832"/>
    </g>
   </g>
   <g id="patch_3">
    <path d="M 144 704.88 
L 144 95.04 
" style="fill:none;stroke:#000000;stroke-linecap:square;stroke-linejoin:miter;stroke-width:0.8;"/>
   </g>
   <g id="patch_4">
    <path d="M 1036.8 704.88 
L 1036.8 95.04 
" style="fill:none;stroke:#000000;stroke-linecap:square;stroke-linejoin:miter;stroke-width:0.8;"/>
   </g>
   <g id="patch_5">
    <path d="M 144 704.88 
L 1036.8 704.88 
" style="fill:none;stroke:#000000;stroke-linecap:square;stroke-linejoin:miter;stroke-width:0.8;"/>
   </g>
   <g id="patch_6">
    <path d="M 144 95.04 
L 1036.8 95.04 
" style="fill:none;stroke:#000000;stroke-linecap:square;stroke-linejoin:miter;stroke-width:0.8;"/>
   </g>
   <g id="text_17">
    <!-- время зарядки 4.224000 -->
    <g transform="translate(679.68 443.52)scale(0.1 -0.1)">
     <defs>
      <path d="M 1156 1613 
L 1156 459 
L 1975 459 
Q 2369 459 2575 607 
Q 2781 756 2781 1038 
Q 2781 1319 2575 1466 
Q 2369 1613 1975 1613 
L 1156 1613 
z
M 1156 3041 
L 1156 2072 
L 1913 2072 
Q 2238 2072 2444 2201 
Q 2650 2331 2650 2563 
Q 2650 2794 2444 2917 
Q 2238 3041 1913 3041 
L 1156 3041 
z
M 581 3500 
L 1950 3500 
Q 2566 3500 2897 3275 
Q 3228 3050 3228 2634 
Q 3228 2313 3059 2123 
Q 2891 1934 2559 1888 
Q 2956 1813 3175 1575 
Q 3394 1338 3394 981 
Q 3394 513 3033 256 
Q 2672 0 2003 0 
L 581 0 
L 581 3500 
z
" id="DejaVuSans-432" transform="scale(0.015625)"/>
      <path d="M 2206 1888 
Q 2594 1813 2809 1584 
Q 3025 1356 3025 1019 
Q 3025 478 2622 193 
Q 2219 -91 1475 -91 
Q 1225 -91 961 -47 
Q 697 -3 416 84 
L 416 619 
Q 638 503 903 445 
Q 1169 388 1459 388 
Q 1931 388 2195 563 
Q 2459 738 2459 1019 
Q 2459 1294 2225 1461 
Q 1991 1628 1563 1628 
L 1100 1628 
L 1100 2103 
L 1584 2103 
Q 1947 2103 2158 2242 
Q 2369 2381 2369 2600 
Q 2369 2800 2151 2944 
Q 1934 3088 1563 3088 
Q 1341 3088 1089 3047 
Q 838 3006 534 2916 
L 534 3438 
Q 841 3513 1106 3550 
Q 1372 3588 1609 3588 
Q 2222 3588 2576 3342 
Q 2931 3097 2931 2656 
Q 2931 2366 2743 2164 
Q 2556 1963 2206 1888 
z
" id="DejaVuSans-437" transform="scale(0.015625)"/>
      <path d="M 1384 459 
L 3053 459 
L 3053 3041 
L 1844 3041 
L 1844 2603 
Q 1844 1316 1475 628 
L 1384 459 
z
M 550 459 
Q 834 584 959 850 
Q 1266 1509 1266 2838 
L 1266 3500 
L 3631 3500 
L 3631 459 
L 4091 459 
L 4091 -884 
L 3631 -884 
L 3631 0 
L 794 0 
L 794 -884 
L 334 -884 
L 334 459 
L 550 459 
z
" id="DejaVuSans-434" transform="scale(0.015625)"/>
      <path d="M 581 3500 
L 1153 3500 
L 1153 1856 
L 2775 3500 
L 3481 3500 
L 2144 2147 
L 3653 0 
L 3009 0 
L 1769 1766 
L 1153 1141 
L 1153 0 
L 581 0 
L 581 3500 
z
" id="DejaVuSans-43a" transform="scale(0.015625)"/>
     </defs>
     <use xlink:href="#DejaVuSans-432"/>
     <use x="58.935547" xlink:href="#DejaVuSans-440"/>
     <use x="122.412109" xlink:href="#DejaVuSans-435"/>
     <use x="183.935547" xlink:href="#DejaVuSans-43c"/>
     <use x="259.375" xlink:href="#DejaVuSans-44f"/>
     <use x="319.53125" xlink:href="#DejaVuSans-20"/>
     <use x="351.318359" xlink:href="#DejaVuSans-437"/>
     <use x="404.492188" xlink:href="#DejaVuSans-430"/>
     <use x="465.771484" xlink:href="#DejaVuSans-440"/>
     <use x="529.248047" xlink:href="#DejaVuSans-44f"/>
     <use x="589.404297" xlink:href="#DejaVuSans-434"/>
     <use x="658.544922" xlink:href="#DejaVuSans-43a"/>
     <use x="718.945312" xlink:href="#DejaVuSans-438"/>
     <use x="783.935547" xlink:href="#DejaVuSans-20"/>
     <use x="815.722656" xlink:href="#DejaVuSans-34"/>
     <use x="879.345703" xlink:href="#DejaVuSans-2e"/>
     <use x="911.132812" xlink:href="#DejaVuSans-32"/>
     <use x="974.755859" xlink:href="#DejaVuSans-32"/>
     <use x="1038.378906" xlink:href="#DejaVuSans-34"/>
     <use x="1102.001953" xlink:href="#DejaVuSans-30"/>
     <use x="1165.625" xlink:href="#DejaVuSans-30"/>
     <use x="1229.248047" xlink:href="#DejaVuSans-30"/>
    </g>
   </g>
   <g id="text_18">
    <!-- время разрядки 5.665000 -->
    <g transform="translate(679.68 356.4)scale(0.1 -0.1)">
     <use xlink:href="#DejaVuSans-432"/>
     <use x="58.935547" xlink:href="#DejaVuSans-440"/>
     <use x="122.412109" xlink:href="#DejaVuSans-435"/>
     <use x="183.935547" xlink:href="#DejaVuSans-43c"/>
     <use x="259.375" xlink:href="#DejaVuSans-44f"/>
     <use x="319.53125" xlink:href="#DejaVuSans-20"/>
     <use x="351.318359" xlink:href="#DejaVuSans-440"/>
     <use x="414.794922" xlink:href="#DejaVuSans-430"/>
     <use x="476.074219" xlink:href="#DejaVuSans-437"/>
     <use x="529.248047" xlink:href="#DejaVuSans-440"/>
     <use x="592.724609" xlink:href="#DejaVuSans-44f"/>
     <use x="652.880859" xlink:href="#DejaVuSans-434"/>
     <use x="722.021484" xlink:href="#DejaVuSans-43a"/>
     <use x="782.421875" xlink:href="#DejaVuSans-438"/>
     <use x="847.412109" xlink:href="#DejaVuSans-20"/>
     <use x="879.199219" xlink:href="#DejaVuSans-35"/>
     <use x="942.822266" xlink:href="#DejaVuSans-2e"/>
     <use x="974.609375" xlink:href="#DejaVuSans-36"/>
     <use x="1038.232422" xlink:href="#DejaVuSans-36"/>
     <use x="1101.855469" xlink:href="#DejaVuSans-35"/>
     <use x="1165.478516" xlink:href="#DejaVuSans-30"/>
     <use x="1229.101562" xlink:href="#DejaVuSans-30"/>
     <use x="1292.724609" xlink:href="#DejaVuSans-30"/>
    </g>
   </g>
   <g id="text_19">
    <!-- время зарядки 4.224000 -->
    <g transform="translate(144 -689.04)scale(5 -5)">
     <use xlink:href="#DejaVuSans-432"/>
     <use x="58.935547" xlink:href="#DejaVuSans-440"/>
     <use x="122.412109" xlink:href="#DejaVuSans-435"/>
     <use x="183.935547" xlink:href="#DejaVuSans-43c"/>
     <use x="259.375" xlink:href="#DejaVuSans-44f"/>
     <use x="319.53125" xlink:href="#DejaVuSans-20"/>
     <use x="351.318359" xlink:href="#DejaVuSans-437"/>
     <use x="404.492188" xlink:href="#DejaVuSans-430"/>
     <use x="465.771484" xlink:href="#DejaVuSans-440"/>
     <use x="529.248047" xlink:href="#DejaVuSans-44f"/>
     <use x="589.404297" xlink:href="#DejaVuSans-434"/>
     <use x="658.544922" xlink:href="#DejaVuSans-43a"/>
     <use x="718.945312" xlink:href="#DejaVuSans-438"/>
     <use x="783.935547" xlink:href="#DejaVuSans-20"/>
     <use x="815.722656" xlink:href="#DejaVuSans-34"/>
     <use x="879.345703" xlink:href="#DejaVuSans-2e"/>
     <use x="911.132812" xlink:href="#DejaVuSans-32"/>
     <use x="974.755859" xlink:href="#DejaVuSans-32"/>
     <use x="1038.378906" xlink:href="#DejaVuSans-34"/>
     <use x="1102.001953" xlink:href="#DejaVuSans-30"/>
     <use x="1165.625" xlink:href="#DejaVuSans-30"/>
     <use x="1229.248047" xlink:href="#DejaVuSans-30"/>
    </g>
   </g>
   <g id="text_20">
    <!-- Процесс заряда и разряда конденсатора в RC - цепочке -->
    <g style="fill:#008000;" transform="translate(412.249687 89.04)scale(0.12 -0.12)">
     <defs>
      <path d="M 4184 4666 
L 4184 0 
L 3553 0 
L 3553 4134 
L 1259 4134 
L 1259 0 
L 628 0 
L 628 4666 
L 4184 4666 
z
" id="DejaVuSans-41f" transform="scale(0.015625)"/>
      <path d="M 1959 3097 
Q 1497 3097 1228 2736 
Q 959 2375 959 1747 
Q 959 1119 1226 758 
Q 1494 397 1959 397 
Q 2419 397 2687 759 
Q 2956 1122 2956 1747 
Q 2956 2369 2687 2733 
Q 2419 3097 1959 3097 
z
M 1959 3584 
Q 2709 3584 3137 3096 
Q 3566 2609 3566 1747 
Q 3566 888 3137 398 
Q 2709 -91 1959 -91 
Q 1206 -91 779 398 
Q 353 888 353 1747 
Q 353 2609 779 3096 
Q 1206 3584 1959 3584 
z
" id="DejaVuSans-43e" transform="scale(0.015625)"/>
      <path d="M 3603 0 
L 581 0 
L 581 3500 
L 1159 3500 
L 1159 459 
L 3025 459 
L 3025 3500 
L 3603 3500 
L 3603 459 
L 4063 459 
L 4063 -884 
L 3603 -884 
L 3603 0 
z
" id="DejaVuSans-446" transform="scale(0.015625)"/>
      <path d="M 188 3500 
L 3541 3500 
L 3541 3041 
L 2147 3041 
L 2147 0 
L 1581 0 
L 1581 3041 
L 188 3041 
L 188 3500 
z
" id="DejaVuSans-442" transform="scale(0.015625)"/>
      <path d="M 2841 2188 
Q 3044 2119 3236 1894 
Q 3428 1669 3622 1275 
L 4263 0 
L 3584 0 
L 2988 1197 
Q 2756 1666 2539 1819 
Q 2322 1972 1947 1972 
L 1259 1972 
L 1259 0 
L 628 0 
L 628 4666 
L 2053 4666 
Q 2853 4666 3247 4331 
Q 3641 3997 3641 3322 
Q 3641 2881 3436 2590 
Q 3231 2300 2841 2188 
z
M 1259 4147 
L 1259 2491 
L 2053 2491 
Q 2509 2491 2742 2702 
Q 2975 2913 2975 3322 
Q 2975 3731 2742 3939 
Q 2509 4147 2053 4147 
L 1259 4147 
z
" id="DejaVuSans-52" transform="scale(0.015625)"/>
      <path d="M 4122 4306 
L 4122 3641 
Q 3803 3938 3442 4084 
Q 3081 4231 2675 4231 
Q 1875 4231 1450 3742 
Q 1025 3253 1025 2328 
Q 1025 1406 1450 917 
Q 1875 428 2675 428 
Q 3081 428 3442 575 
Q 3803 722 4122 1019 
L 4122 359 
Q 3791 134 3420 21 
Q 3050 -91 2638 -91 
Q 1578 -91 968 557 
Q 359 1206 359 2328 
Q 359 3453 968 4101 
Q 1578 4750 2638 4750 
Q 3056 4750 3426 4639 
Q 3797 4528 4122 4306 
z
" id="DejaVuSans-43" transform="scale(0.015625)"/>
      <path d="M 313 2009 
L 1997 2009 
L 1997 1497 
L 313 1497 
L 313 2009 
z
" id="DejaVuSans-2d" transform="scale(0.015625)"/>
      <path d="M 2625 0 
L 2625 1472 
L 1553 1472 
Q 1075 1472 756 1769 
Q 469 2038 469 2613 
L 469 3500 
L 1044 3500 
L 1044 2666 
Q 1044 2300 1206 2116 
Q 1372 1931 1697 1931 
L 2625 1931 
L 2625 3500 
L 3200 3500 
L 3200 0 
L 2625 0 
z
" id="DejaVuSans-447" transform="scale(0.015625)"/>
     </defs>
     <use xlink:href="#DejaVuSans-41f"/>
     <use x="75.195312" xlink:href="#DejaVuSans-440"/>
     <use x="138.671875" xlink:href="#DejaVuSans-43e"/>
     <use x="199.853516" xlink:href="#DejaVuSans-446"/>
     <use x="267.919922" xlink:href="#DejaVuSans-435"/>
     <use x="329.443359" xlink:href="#DejaVuSans-441"/>
     <use x="384.423828" xlink:href="#DejaVuSans-441"/>
     <use x="439.404297" xlink:href="#DejaVuSans-20"/>
     <use x="471.191406" xlink:href="#DejaVuSans-437"/>
     <use x="524.365234" xlink:href="#DejaVuSans-430"/>
     <use x="585.644531" xlink:href="#DejaVuSans-440"/>
     <use x="649.121094" xlink:href="#DejaVuSans-44f"/>
     <use x="709.277344" xlink:href="#DejaVuSans-434"/>
     <use x="778.417969" xlink:href="#DejaVuSans-430"/>
     <use x="839.697266" xlink:href="#DejaVuSans-20"/>
     <use x="871.484375" xlink:href="#DejaVuSans-438"/>
     <use x="936.474609" xlink:href="#DejaVuSans-20"/>
     <use x="968.261719" xlink:href="#DejaVuSans-440"/>
     <use x="1031.738281" xlink:href="#DejaVuSans-430"/>
     <use x="1093.017578" xlink:href="#DejaVuSans-437"/>
     <use x="1146.191406" xlink:href="#DejaVuSans-440"/>
     <use x="1209.667969" xlink:href="#DejaVuSans-44f"/>
     <use x="1269.824219" xlink:href="#DejaVuSans-434"/>
     <use x="1338.964844" xlink:href="#DejaVuSans-430"/>
     <use x="1400.244141" xlink:href="#DejaVuSans-20"/>
     <use x="1432.03125" xlink:href="#DejaVuSans-43a"/>
     <use x="1492.431641" xlink:href="#DejaVuSans-43e"/>
     <use x="1553.613281" xlink:href="#DejaVuSans-43d"/>
     <use x="1618.994141" xlink:href="#DejaVuSans-434"/>
     <use x="1688.134766" xlink:href="#DejaVuSans-435"/>
     <use x="1749.658203" xlink:href="#DejaVuSans-43d"/>
     <use x="1815.039062" xlink:href="#DejaVuSans-441"/>
     <use x="1870.019531" xlink:href="#DejaVuSans-430"/>
     <use x="1931.298828" xlink:href="#DejaVuSans-442"/>
     <use x="1989.550781" xlink:href="#DejaVuSans-43e"/>
     <use x="2050.732422" xlink:href="#DejaVuSans-440"/>
     <use x="2114.208984" xlink:href="#DejaVuSans-430"/>
     <use x="2175.488281" xlink:href="#DejaVuSans-20"/>
     <use x="2207.275391" xlink:href="#DejaVuSans-432"/>
     <use x="2266.210938" xlink:href="#DejaVuSans-20"/>
     <use x="2297.998047" xlink:href="#DejaVuSans-52"/>
     <use x="2362.480469" xlink:href="#DejaVuSans-43"/>
     <use x="2432.304688" xlink:href="#DejaVuSans-20"/>
     <use x="2464.091797" xlink:href="#DejaVuSans-2d"/>
     <use x="2500.175781" xlink:href="#DejaVuSans-20"/>
     <use x="2531.962891" xlink:href="#DejaVuSans-446"/>
     <use x="2600.029297" xlink:href="#DejaVuSans-435"/>
     <use x="2661.552734" xlink:href="#DejaVuSans-43f"/>
     <use x="2726.933594" xlink:href="#DejaVuSans-43e"/>
     <use x="2788.115234" xlink:href="#DejaVuSans-447"/>
     <use x="2847.197266" xlink:href="#DejaVuSans-43a"/>
     <use x="2907.597656" xlink:href="#DejaVuSans-435"/>
    </g>
   </g>
   <g id="legend_1">
    <g id="patch_7">
     <path d="M 929.992188 117.718125 
L 1029.8 117.718125 
Q 1031.8 117.718125 1031.8 115.718125 
L 1031.8 102.04 
Q 1031.8 100.04 1029.8 100.04 
L 929.992188 100.04 
Q 927.992188 100.04 927.992188 102.04 
L 927.992188 115.718125 
Q 927.992188 117.718125 929.992188 117.718125 
z
" style="fill:#ffffff;opacity:0.8;stroke:#cccccc;stroke-linejoin:miter;"/>
    </g>
    <g id="line2d_116">
     <path d="M 931.992188 108.138438 
L 951.992188 108.138438 
" style="fill:none;stroke:#0000ff;stroke-linecap:square;stroke-width:1.5;"/>
    </g>
    <g id="line2d_117">
     <g>
      <use style="fill:#0000ff;stroke:#0000ff;stroke-linejoin:miter;" x="941.992188" xlink:href="#mf94f773634" y="108.138438"/>
     </g>
    </g>
    <g id="text_21">
     <!-- Зависимость -->
     <g transform="translate(959.992188 111.638438)scale(0.1 -0.1)">
      <defs>
       <path d="M 1828 4750 
Q 2597 4750 3084 4423 
Q 3572 4097 3572 3541 
Q 3572 3153 3350 2886 
Q 3128 2619 2719 2516 
Q 3172 2419 3426 2112 
Q 3681 1806 3681 1356 
Q 3681 638 3126 273 
Q 2572 -91 1828 -91 
Q 1447 -91 1003 12 
Q 559 116 422 203 
L 422 853 
Q 900 575 1164 508 
Q 1428 441 1816 441 
Q 2403 441 2728 666 
Q 3053 891 3053 1356 
Q 3053 1769 2764 2001 
Q 2475 2234 1866 2234 
L 1228 2234 
L 1228 2753 
L 1891 2753 
Q 2450 2753 2697 2939 
Q 2944 3125 2944 3475 
Q 2944 3834 2689 4026 
Q 2434 4219 1816 4219 
Q 1397 4219 1253 4181 
Q 1109 4144 469 3903 
L 469 4519 
Q 822 4644 1190 4697 
Q 1559 4750 1828 4750 
z
" id="DejaVuSans-417" transform="scale(0.015625)"/>
       <path d="M 2781 1038 
Q 2781 1319 2576 1466 
Q 2372 1613 1978 1613 
L 1159 1613 
L 1159 459 
L 1978 459 
Q 2372 459 2576 607 
Q 2781 756 2781 1038 
z
M 581 3500 
L 1159 3500 
L 1159 2072 
L 2003 2072 
Q 2672 2072 3033 1817 
Q 3394 1563 3394 1038 
Q 3394 513 3033 256 
Q 2672 0 2003 0 
L 581 0 
L 581 3500 
z
" id="DejaVuSans-44c" transform="scale(0.015625)"/>
      </defs>
      <use xlink:href="#DejaVuSans-417"/>
      <use x="64.111328" xlink:href="#DejaVuSans-430"/>
      <use x="125.390625" xlink:href="#DejaVuSans-432"/>
      <use x="184.326172" xlink:href="#DejaVuSans-438"/>
      <use x="249.316406" xlink:href="#DejaVuSans-441"/>
      <use x="304.296875" xlink:href="#DejaVuSans-438"/>
      <use x="369.287109" xlink:href="#DejaVuSans-43c"/>
      <use x="444.726562" xlink:href="#DejaVuSans-43e"/>
      <use x="505.908203" xlink:href="#DejaVuSans-441"/>
      <use x="560.888672" xlink:href="#DejaVuSans-442"/>
      <use x="619.140625" xlink:href="#DejaVuSans-44c"/>
     </g>
    </g>
   </g>
  </g>
 </g>
 <defs>
  <clipPath id="pb49faef537">
   <rect height="609.84" width="892.8" x="144" y="95.04"/>
  </clipPath>
 </defs>
</svg>
